<svg viewBox="0 0 74 76" fill="none" xmlns="http://www.w3.org/2000/svg">
<path d="M21.9203 8.00986C25.2027 8.75286 33.7801 2 36.6487 2C39.5172 2 48.1605 8.75286 51.4429 8.00986C54.4807 7.32329 61.6192 3.81518 68.7765 3.64589C69.764 3.62708 70.5352 4.43592 70.5447 5.42346L71.3629 62.5689C71.3817 63.942 70.4224 65.1553 69.1715 65.7008C64.4501 67.7887 56.7192 73.0367 53.5967 73.0367C49.9099 73.0367 39.7712 64.9766 36.6487 64.9766C33.5262 64.9766 23.4533 73.0367 19.7571 73.0367C16.6346 73.0367 8.91302 67.7887 4.19166 65.7008C2.94078 65.1553 1.98146 63.942 2.00027 62.5689L2.81852 5.42346C2.82792 4.43592 3.59914 3.62708 4.58668 3.64589C11.744 3.81518 18.8824 7.32329 21.9203 8.00986Z" fill="url(#paint0_linear_5_173)"/>
<path d="M39.583 58.8915C38.3886 61.4685 34.7018 61.7224 31.8709 63.0391C27.5915 64.591 23.7731 67.6382 19.268 67.704C16.3054 67.5536 13.8507 66.0017 11.1044 64.9295C8.32988 63.7915 5.42371 62.1644 5.44252 58.7598C5.24501 52.7687 4.56784 44.4358 9.24218 40.0436C14.9229 33.6482 25.0616 33.761 31.41 39.0279C34.5043 41.1911 35.0404 45.1036 35.5294 48.5647C35.9339 50.6432 37.6268 51.3015 39.0187 53.2108C40.1662 54.7814 40.4577 56.9728 39.6395 58.7316L39.5736 58.8726L39.583 58.8915Z" fill="url(#paint1_linear_5_173)"/>
<path d="M32.6139 32.7547C35.0592 33.366 39.4138 33.319 38.351 29.8297C37.0343 26.9988 33.9682 24.6099 31.0244 23.4342C28.7108 22.6442 26.0585 22.616 24.0835 23.5847C21.3372 24.9014 17.5563 28.5694 22.2871 29.8203C25.5507 30.7514 29.1904 32.0211 32.4164 32.7171L32.6045 32.7547H32.6139Z" fill="url(#paint2_linear_5_173)"/>
<path d="M37.5045 7.32329C32.6787 7.84849 32.3317 17.3491 38.6331 20.2647C49.2044 25.4751 45.2073 35.3975 50.9444 43.4859C52.6749 45.7337 55.1485 47.8405 57.9606 49.0443C59.7852 49.8532 62.6631 50.7843 64.2902 50.709C65.1743 50.6808 65.5599 50.2105 65.6446 48.8938C65.8609 36.639 65.9831 23.2555 65.6446 11.2076C65.4 9.22312 64.1774 10.0884 61.8731 10.4176C59.7193 10.7279 57.4809 10.7562 55.3272 10.9443M55.3272 10.9348C55.3836 10.9819 55.1767 10.9537 55.3272 10.9348ZM55.3272 10.9348C52.1388 11.0571 47.7372 12.4585 44.6618 10.7656C43.5238 10.1918 42.1506 9.46765 41.0126 8.78108C39.6112 8.03808 38.9623 7.37972 37.5045 7.32329" fill="url(#paint3_linear_5_173)"/>
<path d="M57.9922 21.3117C58.0517 27.6287 54.6058 28.2976 48.8507 29.6834C47.4833 30.0126 45.1102 31.5512 43.5687 33.4172C42.0272 35.2832 43.332 37.8601 42.2127 41.1806C41.0142 45.7069 36.735 48.4065 31.7624 48.8114" stroke="#796358" stroke-opacity="0.5" stroke-width="2" stroke-linecap="round" stroke-dasharray="4 4"/>
<path d="M36.6493 2C39.5181 2.00051 48.1609 8.75274 51.4432 8.00977C54.4811 7.32316 61.62 3.8148 68.7772 3.64551C69.7645 3.62694 70.5354 4.43644 70.5448 5.42383L71.3631 62.5693C71.3817 63.9423 70.4224 65.1557 69.1717 65.7012C64.4503 67.7892 56.719 73.0371 53.5965 73.0371C49.9095 73.0365 39.772 64.9771 36.6493 64.9766C33.5268 64.9766 23.4541 73.0367 19.7577 73.0371C16.6352 73.0371 8.91362 67.7892 4.19222 65.7012C2.94149 65.1557 1.98223 63.9423 2.00081 62.5693L2.81917 5.42383C2.82858 4.43635 3.59931 3.6268 4.58675 3.64551C11.744 3.8148 18.8829 7.32319 21.9207 8.00977C25.2032 8.7525 33.7807 2 36.6493 2ZM36.6297 9.69336C35.5576 9.69348 34.203 10.1821 32.6043 11.0566C31.1466 11.856 29.3696 12.8066 27.658 13.4932C26.8022 13.8411 25.7767 14.1987 24.6952 14.415C23.67 14.622 22.1462 14.8098 20.4627 14.4336C19.2496 14.1609 17.8485 13.6626 16.7293 13.2676C15.4691 12.8162 14.1898 12.3547 12.7791 11.9033C12.008 11.6494 11.227 11.4149 10.4559 11.208C9.87278 11.0575 9.30807 11.4899 9.29867 12.0918L8.6307 59.3428C8.62129 60.0576 9.02631 60.7255 9.66585 61.0547C11.7537 62.1551 13.9923 63.4338 15.7039 64.3555C17.1147 65.1173 18.2996 65.7196 19.2401 66.124C19.5221 66.2368 19.8418 66.237 20.1239 66.1055C20.2649 66.0396 20.4161 65.9639 20.576 65.8887C21.8362 65.2586 23.3219 64.384 25.0428 63.3496C26.651 62.3903 28.5132 61.2705 30.159 60.4053C30.9867 59.9726 31.9183 59.5215 32.8494 59.1641H32.868C33.6674 58.8537 35.2852 58.374 36.6395 58.374C37.9938 58.374 39.6402 58.8537 40.4491 59.1641H40.4578C41.389 59.5215 42.3206 59.9726 43.1483 60.4053C44.7941 61.2705 46.6563 62.3903 48.2645 63.3496C49.9853 64.384 51.4805 65.2586 52.7313 65.8887C52.9006 65.9639 53.0518 66.0396 53.1834 66.1055C53.4655 66.237 53.7852 66.2368 54.0672 66.124C55.0077 65.7196 56.1926 65.1173 57.6034 64.3555C59.3245 63.4338 61.5539 62.1551 63.6512 61.0547C64.2907 60.7255 64.6948 60.0575 64.6854 59.3428L64.0086 12.0918C64.0086 11.4899 63.4345 11.0575 62.8514 11.208C62.0803 11.4149 61.3087 11.6494 60.5282 11.9033C59.1175 12.3547 57.8382 12.8162 56.578 13.2676C55.4588 13.6626 54.0577 14.1609 52.8446 14.4336C51.1705 14.8098 49.6373 14.622 48.6121 14.415C47.5306 14.1987 46.5145 13.8412 45.6493 13.4932C43.9376 12.8066 42.1695 11.856 40.7118 11.0566C39.1036 10.1821 37.7018 9.69336 36.6297 9.69336Z" fill="url(#paint4_linear_5_173)"/>
<path d="M24.3664 44.0404C26.2633 43.1622 27.8178 45.6914 26.1843 47C25.552 47.5533 24.9987 47.7992 24.3312 48.3612C23.5672 49.0726 24.665 49.4941 25.2007 50.144C26.2106 51.2418 27.686 52.4538 27.73 53.9994C27.7212 55.106 26.4917 55.9403 25.4554 55.5451C24.3839 55.0972 24.138 54.0433 23.2861 53.2529C22.0478 52.12 21.5385 50.7324 20.3441 52.8226C19.6679 53.6921 19.3429 55.0533 18.0519 55.2026C17.0683 55.3519 16.1198 54.4649 16.1374 53.4901C16.2955 52.041 17.2001 51.2242 18.1134 49.8367C18.3681 49.4854 18.6316 49.0111 18.2012 48.6862C17.5953 48.2207 16.9981 48.0012 16.2955 47.685C14.0911 46.2272 16.1725 43.531 18.3681 44.6991C19.22 44.9889 20.1158 45.8232 20.9676 46.1745C21.3892 46.2623 21.679 45.911 21.96 45.6827C22.7943 45.0503 23.3213 44.6727 24.2346 44.0931L24.3664 44.0316V44.0404ZM19.2112 52.2869C19.2112 52.2869 19.1936 52.2606 19.1761 52.2518C19.1761 52.2518 19.1585 52.243 19.1585 52.2342C19.1761 52.2518 19.1936 52.2693 19.2112 52.2869Z" fill="#BB2628"/>
<path d="M47.7973 19.0779C47.2961 20.0699 46.8776 21.009 46.7083 21.4363C46.6566 21.5668 46.7347 21.6821 46.8637 21.7375C47.0076 21.8146 47.3516 21.8442 49.655 21.8155C51.3263 21.7727 53.1013 22.1839 53.1164 21.5755C53.124 21.2664 53.1564 16.9772 52.1181 17.7185C51.9373 17.8477 50.0377 21.3406 49.4049 20.4304C49.2998 20.2794 48.9276 19.6589 48.333 18.9294C48.121 18.6692 48.0203 18.6368 47.7973 19.0779Z" fill="#CFB49B" stroke="#CFB49B" stroke-width="2" stroke-linecap="round"/>
<path d="M14.717 37.0517C14.2158 38.0436 13.7973 38.9827 13.628 39.41C13.5763 39.5405 13.6544 39.6558 13.7834 39.7112C13.9273 39.7884 14.2713 39.8179 16.5747 39.7892C18.2459 39.7465 20.021 40.1577 20.0361 39.5492C20.0437 39.2401 20.0761 34.9509 19.0378 35.6922C18.8569 35.8214 16.9574 39.3143 16.3245 38.4042C16.2195 38.2531 15.8473 37.6326 15.2527 36.9031C15.0407 36.643 14.9399 36.6105 14.717 37.0517Z" fill="#CFB49B" stroke="#CFB49B" stroke-width="2" stroke-linecap="round"/>
<path d="M53.9333 34.6845C53.2779 35.6293 52.7255 36.5262 52.4737 36.9786C52.3843 37.1392 52.4762 37.2891 52.6516 37.344C52.8492 37.4212 53.3215 37.4507 56.4836 37.422C58.7779 37.3793 61.2148 37.7904 61.2355 37.182C61.246 36.8729 61.2904 32.5837 59.8651 33.325C59.6167 33.4542 57.009 36.9471 56.1402 36.037C55.996 35.8859 55.485 35.2654 54.6687 34.5359C54.3777 34.2758 54.2394 34.2433 53.9333 34.6845Z" fill="#CFB49B" stroke="#CFB49B" stroke-width="2" stroke-linecap="round"/>
<g filter="url(#filter0_i_5_173)">
<path d="M32.8681 59.1642C33.6675 58.8538 35.2852 58.3742 36.6395 58.3742C37.9939 58.3742 39.6398 58.8538 40.4486 59.1642H40.458C41.3891 59.5216 42.3202 59.973 43.1479 60.4057C44.7938 61.271 46.656 62.3902 48.2642 63.3495C49.9854 64.384 51.4808 65.2587 52.7317 65.8889C52.901 65.9641 53.0514 66.0393 53.1831 66.1052C53.4653 66.2369 53.785 66.2368 54.0672 66.124C55.0077 65.7196 56.1927 65.1176 57.6035 64.3558C59.3246 63.4341 61.5537 62.155 63.651 61.0546C64.2905 60.7255 64.695 60.0577 64.6856 59.3429L64.0084 12.0917C64.0084 11.4897 63.4347 11.0571 62.8516 11.2076C62.0803 11.4145 61.3091 11.6496 60.5285 11.9036C59.1177 12.355 57.8386 12.8159 56.5784 13.2673C55.4591 13.6623 54.0578 14.1608 52.8445 14.4335C51.1704 14.8098 49.6374 14.6216 48.6122 14.4147C47.5306 14.1984 46.5149 13.841 45.6496 13.493C43.9379 12.8065 42.1697 11.8565 40.7119 11.0571C39.1037 10.1824 37.7023 9.69337 36.6301 9.69337C35.558 9.69337 34.2036 10.1824 32.6047 11.0571C31.147 11.8565 29.3694 12.8065 27.6577 13.493C26.8018 13.841 25.7766 14.1984 24.6951 14.4147C23.6699 14.6216 22.1463 14.8098 20.4628 14.4335C19.2495 14.1608 17.8481 13.6623 16.7289 13.2673C15.4687 12.8159 14.1896 12.355 12.7788 11.9036C12.0076 11.6496 11.2269 11.4145 10.4557 11.2076C9.87262 11.0571 9.30831 11.4897 9.2989 12.0917L8.63114 59.3429C8.62174 60.0577 9.02616 60.7255 9.6657 61.0546C11.7536 62.155 13.9921 63.4341 15.7038 64.3558C17.1145 65.1176 18.2996 65.7196 19.2401 66.124C19.5223 66.2368 19.842 66.2369 20.1242 66.1052C20.2653 66.0393 20.4157 65.9641 20.5756 65.8889C21.8359 65.2587 23.3219 64.384 25.043 63.3495C26.6513 62.3902 28.5135 61.271 30.1594 60.4057C30.9871 59.973 31.9182 59.5216 32.8493 59.1642H32.8681Z" fill="url(#paint5_linear_5_173)" fill-opacity="0.01"/>
</g>
<path opacity="0.3" d="M20.3883 74.0212L22.0404 7.33425L17.8906 5.80608L8.2663 3.50463L4.08184 2.87695L2.05935 4.481L0.943481 55.113L2.05935 65.2666L9.55854 69.6513L20.3883 74.0212Z" fill="#B43C00"/>
<path opacity="0.3" d="M53.1985 73.9484L51.9679 6.88101L42.2257 3.59942L37.7135 1.6382L35.4451 1.6382V66.0521L42.2257 68.6159L53.1985 73.9484Z" fill="#B43C00"/>
<path d="M71.7698 6.11286C71.76 5.12533 70.9613 4.31649 69.9385 4.3353C62.5255 4.50459 55.132 8.01269 51.9856 8.69927C48.586 9.44227 39.6339 2.68941 36.6629 2.68941C33.6919 2.68941 24.808 9.44227 21.4084 8.69927C18.262 8.01269 10.8685 4.50459 3.45553 4.3353C2.43272 4.31649 1.63395 5.12533 1.62421 6.11286" stroke="white" stroke-opacity="0.4" stroke-width="2" stroke-linejoin="round"/>
<path d="M36.6484 1C37.1771 1 37.7538 1.14955 38.3076 1.3457C38.8767 1.54726 39.5011 1.82703 40.1494 2.14551C41.4395 2.77931 42.9267 3.61981 44.3691 4.40527C45.8342 5.20305 47.2659 5.9516 48.5225 6.45605C49.1494 6.70773 49.7066 6.88816 50.1826 6.98535C50.6673 7.08431 51.0044 7.08329 51.2217 7.03418H51.2227C51.9133 6.87807 52.8708 6.55209 54.0928 6.11914C55.2923 5.69414 56.7117 5.17931 58.2588 4.68164C61.3501 3.68725 65.0315 2.73451 68.7529 2.64648H68.7578C70.3433 2.61648 71.5282 3.91274 71.5449 5.40918L72.3633 62.5547L72.3613 62.7285C72.308 64.5077 71.0621 65.964 69.5752 66.6143L69.5762 66.6152C67.2632 67.6381 64.2314 69.4267 61.2598 71.0312C59.7971 71.821 58.3567 72.5608 57.0742 73.1045C55.8266 73.6333 54.5957 74.0371 53.5967 74.0371C52.9739 74.0371 52.2901 73.8713 51.6104 73.6357C50.9186 73.3961 50.1661 73.0609 49.3867 72.6729C47.83 71.8978 46.0874 70.8708 44.3994 69.8662C42.6949 68.8518 41.0491 67.8616 39.6328 67.1221C38.926 66.753 38.2988 66.4592 37.7686 66.2588C37.2193 66.0512 36.8554 65.9766 36.6484 65.9766C36.4417 65.9766 36.0791 66.0505 35.5322 66.2578C35.004 66.458 34.3795 66.7531 33.6758 67.1221C32.2658 67.8614 30.6284 68.8509 28.9316 69.8652C27.2514 70.8698 25.516 71.8966 23.9639 72.6719C23.1868 73.06 22.4353 73.395 21.7441 73.6348C21.0647 73.8705 20.3807 74.0371 19.7568 74.0371C18.7578 74.037 17.5279 73.6333 16.2812 73.1045C14.9995 72.5608 13.5603 71.8211 12.0986 71.0312C9.1293 69.4267 6.09994 67.638 3.78711 66.6152V66.6143C2.25254 65.9429 0.974558 64.4119 1 62.5547L1.81836 5.40918C1.83509 3.9127 3.01991 2.61642 4.60547 2.64648H4.61035C8.33177 2.73451 12.0132 3.68724 15.1045 4.68164C16.6517 5.17933 18.0709 5.69413 19.2705 6.11914C20.4926 6.55211 21.45 6.87808 22.1406 7.03418C22.3579 7.08337 22.6944 7.08412 23.1768 6.98535C23.6506 6.88829 24.2055 6.70856 24.8291 6.45703C26.0791 5.95283 27.5022 5.20403 28.959 4.40625C30.3931 3.6209 31.8721 2.78046 33.1562 2.14648C33.8018 1.8278 34.4245 1.54845 34.9922 1.34668C35.5446 1.15036 36.1195 1.00004 36.6484 1Z" stroke="#796358" stroke-width="2" stroke-linejoin="round"/>
<ellipse cx="62.7579" cy="15.4814" rx="5.20788" ry="7.32771" transform="rotate(-10.5619 62.7579 15.4814)" fill="white" fill-opacity="0.4"/>
<ellipse cx="61.7827" cy="31.872" rx="2.88847" ry="4.0642" transform="rotate(-10.5619 61.7827 31.872)" fill="white" fill-opacity="0.4"/>
<defs>
<filter id="filter0_i_5_173" x="8.63098" y="9.69337" width="56.0547" height="56.513" filterUnits="userSpaceOnUse" color-interpolation-filters="sRGB">
<feFlood flood-opacity="0" result="BackgroundImageFix"/>
<feBlend mode="normal" in="SourceGraphic" in2="BackgroundImageFix" result="shape"/>
<feColorMatrix in="SourceAlpha" type="matrix" values="0 0 0 0 0 0 0 0 0 0 0 0 0 0 0 0 0 0 127 0" result="hardAlpha"/>
<feOffset/>
<feGaussianBlur stdDeviation="7.1"/>
<feComposite in2="hardAlpha" operator="arithmetic" k2="-1" k3="1"/>
<feColorMatrix type="matrix" values="0 0 0 0 1 0 0 0 0 1 0 0 0 0 1 0 0 0 0.5 0"/>
<feBlend mode="normal" in2="shape" result="effect1_innerShadow_5_173"/>
</filter>
<linearGradient id="paint0_linear_5_173" x1="36.6816" y1="2" x2="36.6816" y2="64.6089" gradientUnits="userSpaceOnUse">
<stop stop-color="#FFF1DB"/>
<stop offset="1" stop-color="#FFF0D7"/>
</linearGradient>
<linearGradient id="paint1_linear_5_173" x1="22.6986" y1="35.1558" x2="12.2194" y2="67.704" gradientUnits="userSpaceOnUse">
<stop stop-color="#F0DBC7"/>
<stop offset="1" stop-color="#E7CBAF"/>
</linearGradient>
<linearGradient id="paint2_linear_5_173" x1="29.2766" y1="22.8491" x2="27.2098" y2="33.7172" gradientUnits="userSpaceOnUse">
<stop stop-color="#F0DBC7"/>
<stop offset="1" stop-color="#E7CBAF"/>
</linearGradient>
<linearGradient id="paint3_linear_5_173" x1="49.873" y1="7.32329" x2="31.5016" y2="46.623" gradientUnits="userSpaceOnUse">
<stop stop-color="#F0DBC7"/>
<stop offset="1" stop-color="#E7CBAF"/>
</linearGradient>
<linearGradient id="paint4_linear_5_173" x1="36.682" y1="2" x2="36.682" y2="73.0368" gradientUnits="userSpaceOnUse">
<stop stop-color="#FFDA9E"/>
<stop offset="1" stop-color="#C28750"/>
</linearGradient>
<linearGradient id="paint5_linear_5_173" x1="36.6584" y1="9.69337" x2="36.6584" y2="99.1317" gradientUnits="userSpaceOnUse">
<stop stop-color="#FFFEFC"/>
<stop offset="1" stop-color="#FFF0D7"/>
</linearGradient>
</defs>
</svg>
