<svg width="18" height="17" viewBox="0 0 18 17" fill="none" xmlns="http://www.w3.org/2000/svg">
<path d="M13.3496 8.96639C13.3496 10.2811 11.286 11.3468 8.74036 11.3468C6.19474 11.3468 4.1311 10.2811 4.1311 8.96639C4.1311 7.65172 6.19474 6.58597 8.74036 6.58597C11.286 6.58597 13.3496 7.65172 13.3496 8.96639Z" fill="#73AA00"/>
<path fill-rule="evenodd" clip-rule="evenodd" d="M8.74346 2C10.711 2 14.7068 3.27715 14.7908 8.56179L15.3042 9.12248C15.4092 9.23463 15.4745 9.37887 15.4791 9.52992C15.4885 9.78626 15.4605 10.2073 15.2458 10.6376C15.0381 11.0542 14.7159 11.3815 14.4919 11.576C14.3379 11.7087 14.1255 11.7454 13.9295 11.6928L12.8652 11.4134C12.7672 11.3883 12.6831 11.4823 12.7228 11.5738C12.9422 12.0705 13.3436 13.2467 12.4662 13.6564C11.7217 14.0043 11.2151 13.4413 10.956 13.0202C10.9234 12.9653 10.8394 12.9928 10.8464 13.0569C10.9164 13.581 10.893 14.4232 10.0598 14.572C9.21265 14.7253 8.90678 13.922 8.79708 13.4094C8.78307 13.3476 8.69457 13.3476 8.6829 13.4094C8.57319 13.9221 8.26732 14.7231 7.41782 14.572C6.58462 14.4232 6.55903 13.581 6.63138 13.0569C6.64071 12.9951 6.55655 12.9652 6.52154 13.0202C6.26481 13.4413 5.75844 14.0043 5.0116 13.6564C4.1341 13.2468 4.53541 12.0705 4.75481 11.5738C4.79449 11.4823 4.71044 11.3883 4.61241 11.4134L3.54812 11.6928C3.34975 11.7454 3.13739 11.7087 2.9857 11.576C2.76164 11.3815 2.43953 11.0542 2.23181 10.6376C2.02645 10.2142 1.99385 9.8046 2.00085 9.54598C2.00552 9.38807 2.06618 9.23474 2.1782 9.12031L2.69157 8.5594C2.77564 3.27717 6.77596 2.00002 8.74346 2ZM6.76618 7.56783C5.43029 6.80764 3.88554 9.03918 5.05024 10.0461C6.39946 11.0619 8.15762 8.59253 6.7996 7.5878L6.76618 7.56783ZM12.4343 10.0461C13.5988 9.03917 12.0542 6.80779 10.7184 7.56783L10.6849 7.5878C9.32683 8.59251 11.0851 11.0619 12.4343 10.0461Z" fill="#B3FF49"/>
<path d="M8.96777 1.00488C10.119 1.04957 11.7166 1.43967 13.0889 2.51074C14.5281 3.63412 15.6376 5.4462 15.7754 8.15625L16.0342 8.43848L16.125 8.54492C16.3274 8.80068 16.4659 9.12772 16.4785 9.49316L16.4756 9.80469C16.4593 10.0964 16.4012 10.4626 16.2461 10.8496L16.1406 11.084C15.8498 11.667 15.4189 12.0953 15.1475 12.3311L15.1445 12.334C14.8071 12.6246 14.3934 12.7328 14.0049 12.71C14.0065 12.9944 13.9653 13.3264 13.8125 13.6523C13.6303 14.041 13.32 14.3615 12.8896 14.5625C12.4103 14.7865 11.9474 14.807 11.5371 14.7002C11.2791 15.111 10.8551 15.446 10.2354 15.5566L10.2344 15.5557C9.85496 15.6237 9.48189 15.5929 9.13867 15.4512C8.98841 15.3891 8.85643 15.3094 8.73926 15.2217C8.62209 15.3092 8.48989 15.3883 8.33984 15.4502C7.99649 15.5919 7.62319 15.6241 7.24316 15.5566H7.24219C6.62273 15.446 6.19877 15.1111 5.94043 14.7002C5.53034 14.8065 5.06853 14.7854 4.58984 14.5625H4.58887C4.15832 14.3615 3.84733 14.0411 3.66504 13.6523C3.51226 13.3264 3.47109 12.9944 3.47266 12.71C3.08527 12.7329 2.66961 12.626 2.33008 12.3301V12.3311C2.05861 12.0953 1.62769 11.667 1.33691 11.084L1.33203 11.0742C1.03547 10.4628 0.991185 9.88046 1.00098 9.51855V9.5166C1.01226 9.13501 1.1575 8.74827 1.44238 8.44531H1.44043L1.70703 8.15332C1.84517 5.44417 2.95627 3.63254 4.39648 2.50977C5.86114 1.36807 7.58196 1.00007 8.74316 1L8.96777 1.00488Z" stroke="#73AA00" stroke-width="2"/>
</svg>
