<svg width="16" height="16" viewBox="0 0 16 16" fill="none" xmlns="http://www.w3.org/2000/svg">
<path d="M5.51953 2.52344C6.2347 0.492351 9.10734 0.492258 9.82227 2.52344L10.3535 4.0332C10.5106 4.47943 10.8614 4.8302 11.3076 4.9873L12.8174 5.51953C14.8486 6.23465 14.8487 9.1074 12.8174 9.82227L11.3076 10.3535C10.8614 10.5106 10.5106 10.8614 10.3535 11.3076L9.82227 12.8174C9.1074 14.8487 6.23465 14.8486 5.51953 12.8174L4.9873 11.3076C4.8302 10.8614 4.47943 10.5106 4.0332 10.3535L2.52344 9.82227C0.492258 9.10734 0.492351 6.2347 2.52344 5.51953L4.0332 4.9873C4.47938 4.8302 4.8302 4.47938 4.9873 4.0332L5.51953 2.52344Z" fill="#E8F3FF" stroke="#5C89BE" stroke-width="2"/>
</svg>
