<svg width="20" height="13" viewBox="0 0 20 13" fill="none" xmlns="http://www.w3.org/2000/svg">
<path d="M18.418 4.05812C18.418 5.74707 14.5188 7.11623 9.70898 7.11623C4.89915 7.11623 1 5.74707 1 4.05812C1 2.36917 4.89915 1 9.70898 1C14.5188 1 18.418 2.36917 18.418 4.05812Z" fill="#FFC548"/>
<path d="M9.70898 7.11622C14.5188 7.11622 18.418 5.74706 18.418 4.05811V8.92245C18.418 10.6114 14.5188 11.9806 9.70898 11.9806C4.89915 11.9806 1 10.6114 1 8.92245V4.05811C1 5.74706 4.89915 7.11622 9.70898 7.11622Z" fill="#FFA600"/>
<path d="M18.418 4.05812C18.418 5.74707 14.5188 7.11623 9.70898 7.11623C4.89915 7.11623 1 5.74707 1 4.05812M18.418 4.05812C18.418 2.36917 14.5188 1 9.70898 1C4.89915 1 1 2.36917 1 4.05812M18.418 4.05812V8.92246C18.418 10.6114 14.5188 11.9806 9.70898 11.9806C4.89915 11.9806 1 10.6114 1 8.92246V4.05812" stroke="#A45311" stroke-width="2"/>
</svg>
