<svg width="19" height="15" viewBox="0 0 19 15" fill="none" xmlns="http://www.w3.org/2000/svg">
<path d="M4.6947 1.13959C5.49105 0.938654 6.3931 0.933084 7.23572 1.26849L7.23474 1.26947C7.9873 1.56701 8.60274 2.03944 9.10681 2.60345C9.61224 2.03779 10.2315 1.56665 10.9828 1.26947C11.8254 0.934051 12.7274 0.938636 13.5238 1.13959H13.5267C14.4566 1.37715 15.4742 1.84193 16.2064 2.70795C17.6773 4.44773 17.3843 7.02352 16.3812 8.7226C15.5018 10.2122 14.1411 11.2539 12.8705 12.0995L12.3334 12.4511C11.7417 12.8328 11.0242 13.2265 10.2855 13.5019L10.2806 13.5038C9.52489 13.781 8.69947 13.781 7.94373 13.5038L7.93884 13.5019C7.2024 13.2274 6.49175 12.8398 5.89099 12.4501V12.4511C4.47914 11.5414 2.85525 10.4241 1.84509 8.72455C0.832865 7.02133 0.548428 4.4461 2.01794 2.70795C2.74968 1.84245 3.76661 1.37818 4.68982 1.14056L4.6947 1.13959Z" fill="#FF7F24" stroke="#6A3F20" stroke-width="2" stroke-linecap="round" stroke-linejoin="round"/>
</svg>
