<svg width="71" height="78" viewBox="0 0 71 78" fill="none" xmlns="http://www.w3.org/2000/svg">
<path d="M44.5658 6.74637C47.7468 6.4437 51.4808 10.2548 41.8974 22.2341C41.8974 22.2341 59.4955 19.0251 66.8143 33.0155C74.1331 47.0059 49.5641 75.4222 35.073 75.4222C20.582 75.4222 -3.98701 47.0059 3.33177 33.0155C10.6505 19.0251 28.2487 22.2341 28.2487 22.2341C18.6653 10.2548 22.3993 6.4437 25.5803 6.74637C26.6187 6.84517 27.9485 7.41171 28.7219 7.77965C29.0351 7.92867 29.4221 7.74022 29.5078 7.40409C29.9156 5.80457 31.2838 2 35.073 2C38.8622 2 40.2305 5.80457 40.6383 7.40409C40.724 7.74022 41.111 7.92867 41.4242 7.77965C42.1976 7.41171 43.5274 6.84517 44.5658 6.74637Z" fill="#FF7F24"/>
<path d="M44.5658 6.74637C47.7468 6.4437 51.4808 10.2548 41.8974 22.2341C41.8974 22.2341 39.1458 23.3768 34.9543 23.3768C30.7627 23.3768 28.2487 22.2341 28.2487 22.2341C18.6653 10.2548 22.3993 6.4437 25.5803 6.74637C26.6187 6.84517 27.9485 7.41171 28.7219 7.77965C29.0351 7.92867 29.4221 7.74022 29.5078 7.40409C29.9156 5.80457 31.2838 2 35.073 2C38.8623 2 40.2305 5.80457 40.6383 7.40409C40.724 7.74022 41.111 7.92867 41.4242 7.77965C42.1976 7.41171 43.5274 6.84517 44.5658 6.74637Z" fill="#4AD82A"/>
<path d="M26.397 74.329C28.5057 75.3394 35.7308 77.4223 35.7308 77.4223C30.0526 69.9538 23.8879 62.3541 19.8901 53.7983C16.7929 45.9015 15.0168 35.6758 18.6083 27.5593C20.0031 24.8355 20.615 23.2396 23.7122 21.9875C25.6562 21.1747 28.2854 22.3113 28.2854 22.3113C28.2854 22.3113 25.0073 15.7145 25.2096 11.9102C25.4437 7.50898 27.7998 6.52755 27.7998 6.52755C27.7998 6.52755 24.9263 5.31342 22.9432 7.53933C21.186 9.09892 21.7726 12.0569 22.3766 14.1766C23.9143 19.2398 25.7357 20.0623 25.7357 20.0623C25.7357 20.0623 4.20788 22.6887 2.09914 33.8145C0.0453167 42.7986 2.85568 50.0917 8.03967 56.7584C13.8387 64.4575 17.8522 69.9358 26.397 74.329Z" fill="#B84800" fill-opacity="0.2"/>
<ellipse cx="53.9816" cy="33.9815" rx="5.12604" ry="7.80128" transform="rotate(-60.5304 53.9816 33.9815)" fill="#FFE0C6" fill-opacity="0.3"/>
<ellipse cx="49.4214" cy="46.4364" rx="4.00812" ry="6.09992" transform="rotate(-60.5304 49.4214 46.4364)" fill="#FFE0C6" fill-opacity="0.3"/>
<path d="M35.0732 1C37.3615 1.00007 38.9209 2.17031 39.9229 3.50098C40.7341 4.5785 41.2043 5.78891 41.4668 6.65918C42.2806 6.29837 43.4569 5.84752 44.4707 5.75098C45.4699 5.6559 46.5664 5.87784 47.4512 6.56348C48.3584 7.26656 48.9362 8.37452 49.0166 9.8291C49.155 12.3356 47.8307 15.9543 44.1182 20.9854C44.3078 20.9729 44.5069 20.9618 44.7148 20.9521C46.5319 20.8674 49.0383 20.904 51.7871 21.3936C57.2864 22.3731 63.8491 25.1904 67.7002 32.5518C69.7051 36.3842 69.4736 41.092 67.9316 45.8516C66.3844 50.627 63.4766 55.5961 59.9053 60.0879C56.3314 64.5828 52.0579 68.6439 47.7383 71.5898C43.4433 74.5189 38.9893 76.4218 35.0732 76.4219C31.157 76.4219 26.7024 74.5191 22.4072 71.5898C18.0877 68.6439 13.815 64.5827 10.2412 60.0879C6.66986 55.5961 3.76207 50.627 2.21484 45.8516C0.672799 41.0919 0.440421 36.3843 2.44531 32.5518C6.29645 25.19 12.8599 22.3731 18.3594 21.3936C21.1082 20.904 23.6146 20.8674 25.4316 20.9521C25.6392 20.9618 25.838 20.973 26.0273 20.9854C22.3149 15.9544 20.9905 12.3356 21.1289 9.8291C21.2093 8.37451 21.7881 7.26657 22.6953 6.56348C23.5799 5.87804 24.6757 5.65596 25.6748 5.75098C26.6885 5.84743 27.8649 6.29837 28.6787 6.65918C28.9412 5.78884 29.4123 4.57861 30.2236 3.50098C31.2256 2.17027 32.7849 1 35.0732 1Z" stroke="#6A3F20" stroke-width="5" stroke-linecap="round" stroke-linejoin="round"/>
</svg>
