<svg width="73" height="79" viewBox="0 0 73 79" fill="none" xmlns="http://www.w3.org/2000/svg">
<g clip-path="url(#clip0_7_572)">
<path d="M27.255 12.59C27.085 12.09 26.915 11.58 26.755 11.07C25.785 7.99999 25.115 4.87999 24.925 3.95999C25.485 5.32999 30.295 6.39999 36.125 6.39999C41.955 6.39999 46.735 5.32999 47.295 3.95999C47.105 4.87999 46.425 7.99999 45.465 11.07C45.305 11.58 45.135 12.09 44.955 12.59C44.635 13.47 44.305 14.32 43.955 15.07C43.365 16.33 42.725 17.32 42.055 17.78C40.885 18.59 39.355 19.4 36.125 19.4C32.895 19.4 31.335 18.59 30.155 17.78C29.485 17.32 28.845 16.33 28.255 15.07C27.905 14.32 27.575 13.47 27.255 12.59Z" fill="#DA9068"/>
<path d="M36.125 1C42.315 1 47.345 2.21 47.345 3.7C47.345 3.7 47.345 3.72 47.345 3.77C47.335 3.81 47.315 3.88 47.305 3.96C46.745 5.33 41.955 6.4 36.135 6.4C30.315 6.4 25.495 5.33 24.935 3.96C24.935 3.92 24.915 3.88 24.905 3.85L24.875 3.7C24.875 2.21 29.935 1 36.135 1H36.125Z" fill="url(#paint0_radial_7_572)"/>
<path d="M8.22418 44.6923C8.22418 58.438 19.5541 69.9306 36.1099 69.9306C52.6658 69.9306 63.9957 58.438 63.9957 44.6923C63.9957 39.9324 62.4986 35.4846 59.9018 31.7035H12.3181C9.72127 35.4846 8.22418 39.9324 8.22418 44.6923Z" fill="#45ABFF"/>
<ellipse cx="36.1837" cy="36.1675" rx="25.5693" ry="12.8435" fill="#91CBFF"/>
<ellipse cx="36.11" cy="3.79817" rx="10.0079" ry="3.01619" stroke="#FFD87E" stroke-width="1.25" stroke-linecap="round"/>
<path d="M50.02 16.2623C50.14 16.6329 50.19 17.0122 50.19 17.3829C50.19 21.7965 44.34 25.4946 36.13 25.4946C27.92 25.4946 22.03 21.7965 22.03 17.3829C22.03 17.0122 22.09 16.6329 22.2 16.2623C22.72 14.5813 24.39 12.9434 27.26 12.59C27.58 13.3486 27.91 14.0813 28.26 14.7278C28.85 15.814 29.49 16.6674 30.16 17.064C31.34 17.7622 32.89 19.3935 36.13 19.3935C39.37 19.3935 40.89 17.7622 42.06 17.064C42.73 16.6674 43.37 15.814 43.96 14.7278C44.31 14.0813 44.64 13.3486 44.96 12.59C47.83 12.9434 49.51 14.5813 50.02 16.2623Z" fill="#E8F3FF"/>
<path d="M50.02 16.2623C50.14 16.6329 50.19 17.0122 50.19 17.3829C50.19 21.7965 44.34 25.4946 36.13 25.4946C27.92 25.4946 22.03 21.7965 22.03 17.3829C22.03 17.0122 22.09 16.6329 22.2 16.2623C22.72 14.5813 24.39 12.9434 27.26 12.59C27.58 13.3486 27.91 14.0813 28.26 14.7278C28.85 15.814 29.49 16.6674 30.16 17.064C31.34 17.7622 32.89 19.3935 36.13 19.3935C39.37 19.3935 40.89 17.7622 42.06 17.064C42.73 16.6674 43.37 15.814 43.96 14.7278C44.31 14.0813 44.64 13.3486 44.96 12.59C47.83 12.9434 49.51 14.5813 50.02 16.2623Z" fill="#E8F3FF"/>
</g>
<path d="M50.02 16.85C62.5 21.68 71.23 32.81 71.23 45.78C71.23 63.17 56.96 77.72 36.11 77.72C15.26 77.72 1 63.17 1 45.78C1 32.81 9.73 21.68 22.2 16.85C22.09 17.28 22.03 17.72 22.03 18.15C22.03 19.8896 27.91 25.347 36.13 25.347C44.35 25.347 50.19 20.1873 50.19 18.15C50.19 17.72 50.14 17.28 50.02 16.85Z" fill="#B1D6FF" fill-opacity="0.3"/>
<path d="M22.6987 16.2623C22.5925 16.6329 22.5249 17.0122 22.5249 17.3829C22.5249 21.7965 28.202 25.4947 36.1384 25.4947C44.0748 25.4947 49.7133 21.7965 49.7133 17.3829C49.7133 17.0122 49.665 16.633 49.5491 16.2623" stroke="#E8F3FF" stroke-width="1.25" stroke-linecap="round"/>
<path d="M27.637 12.59C27.9435 13.47 28.2596 14.32 28.5949 15.07C29.16 16.33 29.7731 17.32 30.4148 17.78C31.5451 18.59 33.0298 19.4 36.1333 19.4C39.2368 19.4 40.6927 18.59 41.8134 17.78C42.4552 17.32 43.0682 16.33 43.6334 15.07C43.9686 14.32 44.2847 13.47 44.5912 12.59" stroke="#DA9068" stroke-width="1.25" stroke-linecap="round"/>
<g clip-path="url(#clip1_7_572)">
<path d="M1.17694 46.08C1.17694 63.45 15.3969 77.96 36.1769 78.02C29.8769 75.4807 18.5087 60.1825 19.2276 46.08C19.7405 36.021 23.54 29.1225 29.8769 22.59C29.7749 19.9125 32.2946 19.0778 32.2803 18.3343C30.5327 15.2551 31.191 4.03051 32.1269 1.48999C22.6382 2.40678 24.8421 5.25824 27.4369 12.89C24.5669 13.3 22.8969 15.19 22.3769 17.14C9.90694 21.98 1.17694 33.12 1.17694 46.08Z" fill="#0922B4" fill-opacity="0.06"/>
</g>
<path d="M27.27 12.59C24.4 13 22.73 14.9 22.21 16.85C9.73999 21.68 1 32.81 1 45.78C1 63.17 15.26 77.72 36.11 77.72C56.96 77.72 71.23 63.17 71.23 45.78C71.23 32.81 62.5 21.68 50.02 16.85C49.51 14.9 47.83 13 44.96 12.59C45.14 12.09 45.31 11.58 45.47 11.07C45.8385 9.89179 46.201 8.53243 46.5079 7.30449C47.1047 4.91662 46.7305 2.47846 44.3477 1.86181C42.2996 1.33178 39.3766 1 36.13 1C32.811 1 29.8186 1.34677 27.7543 1.89763C25.4566 2.51077 25.0933 4.87788 25.6723 7.18438C25.9756 8.39242 26.3459 9.75945 26.76 11.07C26.92 11.58 27.09 12.09 27.26 12.59" stroke="#5C89BE" stroke-width="5" stroke-linecap="round" stroke-linejoin="round"/>
<ellipse cx="55.643" cy="29.7113" rx="4.59713" ry="6.99633" transform="rotate(-53.4137 55.643 29.7113)" fill="white" fill-opacity="0.6"/>
<ellipse cx="49.7133" cy="39.1364" rx="3.69661" ry="3.94207" transform="rotate(-53.4137 49.7133 39.1364)" fill="white" fill-opacity="0.6"/>
<defs>
<radialGradient id="paint0_radial_7_572" cx="0" cy="0" r="1" gradientUnits="userSpaceOnUse" gradientTransform="translate(36.11 2.43199) rotate(90) scale(3.96801 16.5113)">
<stop stop-color="#FFDD8E"/>
<stop offset="1" stop-color="#FFD36D"/>
</radialGradient>
<clipPath id="clip0_7_572">
<rect width="71.23" height="77.72" fill="white" transform="translate(0.494995 0.5)"/>
</clipPath>
<clipPath id="clip1_7_572">
<rect width="35" height="76.52" fill="white" transform="translate(1.17694 1.5)"/>
</clipPath>
</defs>
</svg>
