<svg width="77" height="79" viewBox="0 0 77 79" fill="none" xmlns="http://www.w3.org/2000/svg">
<path d="M37.5166 1.03082C39.379 0.820095 41.1238 1.70759 42.8887 3.36871C44.4338 4.82296 46.1101 6.9779 48.0361 9.8482L48.8779 11.1216L48.8857 11.1353C48.9992 11.3158 49.0686 11.4175 49.1367 11.4918C49.1833 11.5425 49.2134 11.5606 49.2344 11.5699C49.254 11.5763 49.3065 11.5898 49.4727 11.5308C49.5669 11.4974 49.673 11.4498 49.8145 11.3824C49.9415 11.3218 50.118 11.2349 50.2891 11.1607L50.9395 10.8892C51.6251 10.6171 52.4068 10.3537 53.2031 10.1959C54.1816 10.0019 55.2997 9.94262 56.3105 10.3316L56.5117 10.4156L56.5859 10.4537C57.3296 10.8678 58.0285 11.6905 58.6436 12.566C59.2843 13.4781 59.9309 14.592 60.54 15.7398C61.7426 18.0058 62.8443 20.4924 63.5156 22.0103C63.5679 22.1019 63.6142 22.153 63.6553 22.1851C63.6815 22.1977 63.7422 22.2034 63.9258 22.1304C64.0732 22.0718 64.2276 21.9905 64.4492 21.8755C64.6472 21.7729 64.9051 21.6397 65.1797 21.5396C66.01 21.2134 67.2336 20.8711 68.3525 21.3843L68.5762 21.4996L68.6787 21.5669C69.2436 21.9902 69.7782 22.8045 70.2637 23.7271C70.7747 24.6983 71.3118 25.9502 71.835 27.4058C72.882 30.3192 73.8959 34.1142 74.5361 38.2505C75.8074 46.4639 75.6464 56.3005 71.0195 63.1939C71.0169 63.1979 71.0144 63.2027 71.0117 63.2066C65.9503 70.5174 57.1398 74.6766 48.7422 76.5044L48.7334 76.5064C34.0266 79.5695 15.4327 76.4264 5.60938 63.7906C5.60299 63.7824 5.59695 63.7736 5.59082 63.7652C2.80855 59.9428 1.51787 55.0856 1.13086 50.1324C0.743221 45.171 1.25532 40.0361 2.14844 35.5806L2.15527 35.5513C2.76636 32.9182 3.35962 30.288 4.14648 27.9273C4.9337 25.5657 5.94074 23.389 7.4248 21.6812L7.48633 21.6158C7.55071 21.5539 7.62345 21.5013 7.70215 21.4585C8.72776 20.902 9.79851 21.1233 10.5859 21.3931C10.9907 21.5318 11.3858 21.707 11.7217 21.855C12.0419 21.9962 12.3033 22.1093 12.5352 22.19C12.5403 22.1881 12.551 22.1853 12.5654 22.1753C12.6167 22.1399 12.6871 22.0599 12.7354 21.9439L12.7588 21.8931C13.5167 20.3207 14.6572 17.5548 15.8916 15.2427C16.5191 14.0675 17.2081 12.9333 17.9434 12.0386C18.6548 11.1731 19.5292 10.3825 20.5635 10.1431L20.6064 10.1343C21.6883 9.93308 22.8527 10.1237 23.8848 10.4185C24.6704 10.643 25.4345 10.9442 26.1064 11.2408L26.7451 11.5328L26.7803 11.5494C26.7872 11.553 26.807 11.5617 26.8418 11.566C26.8768 11.5702 26.9178 11.5695 26.959 11.5621C26.9964 11.5553 27.0228 11.543 27.0381 11.5357C27.0405 11.533 27.0435 11.5306 27.0459 11.5279L27.1133 11.4527C29.1394 8.4298 30.877 5.96461 32.4814 4.20855C34.085 2.45349 35.7054 1.2358 37.5166 1.03082Z" fill="url(#paint0_linear_7_539)" stroke="#73AA00" stroke-width="5" stroke-linejoin="round"/>
<path fill-rule="evenodd" clip-rule="evenodd" d="M38.1216 19.611C46.0471 19.611 62.1432 24.7556 62.4816 46.0434C62.4816 46.0987 62.5003 46.1538 62.5472 46.1999L64.5496 48.302C64.9727 48.7537 65.2356 49.3347 65.2544 49.9432C65.292 50.9758 65.1793 52.672 64.3144 54.4053C63.4776 56.0832 62.1801 57.4017 61.2776 58.1853C60.6571 58.72 59.8017 58.8678 59.012 58.6558L54.7248 57.5304C54.33 57.4293 53.9914 57.8079 54.1512 58.1766C55.0349 60.1773 56.652 64.9153 53.1176 66.5656C50.1185 67.967 48.078 65.6991 47.0344 64.0028C46.9027 63.7816 46.5646 63.8924 46.5928 64.1505C46.8748 66.2618 46.7803 69.6546 43.424 70.2539C40.0116 70.8713 38.7795 67.6357 38.3376 65.5706C38.2812 65.3216 37.9246 65.3216 37.8776 65.5706C37.4357 67.6357 36.2036 70.8623 32.7816 70.2539C29.4253 69.6546 29.3222 66.2618 29.6136 64.1505C29.6512 63.9016 29.3122 63.7815 29.1712 64.0028C28.137 65.6991 26.0973 67.9669 23.0888 66.5656C19.554 64.9155 21.1706 60.1774 22.0544 58.1766C22.2142 57.8078 21.8757 57.429 21.4808 57.5304L17.1936 58.6558C16.3945 58.8677 15.539 58.72 14.928 58.1853C14.0254 57.4017 12.7279 56.0832 11.8912 54.4053C11.064 52.6998 10.9326 51.0497 10.9608 50.0079C10.9796 49.3718 11.224 48.7542 11.6752 48.2932L13.6776 46.1911C13.6776 46.1911 13.7432 46.0891 13.7432 46.0337C14.0818 24.7557 30.196 19.611 38.1216 19.611ZM40.0068 52.4973C39.3263 51.1993 37.6432 50.8236 36.7121 51.8529V51.8617L36.6132 51.9692C36.0761 52.7123 35.0107 53.9926 34.9388 54.888C34.8403 56.1863 36.1387 57.2255 37.2489 57.6642C38.7442 58.2104 40.4279 57.1178 41.1173 55.8463C41.708 54.5929 40.6604 53.4912 40.0068 52.4973ZM30.1566 42.0395C24.7754 38.9772 18.5528 47.9664 23.2445 52.0225C28.6794 56.1144 35.7617 46.1672 30.2913 42.1199L30.1566 42.0395ZM52.9891 52.0225C57.6801 47.9663 51.458 38.9779 46.0769 42.0395L45.9423 42.1199C40.4715 46.1671 47.5541 56.1145 52.9891 52.0225Z" fill="#5A9B00"/>
<ellipse cx="45.6546" cy="29.4156" rx="4.52762" ry="6.10843" transform="rotate(-60 45.6546 29.4156)" fill="#A9FF49" fill-opacity="0.2"/>
<ellipse cx="52.2996" cy="37.2516" rx="1.87241" ry="2.52616" transform="rotate(-60 52.2996 37.2516)" fill="#A9FF49" fill-opacity="0.2"/>
<defs>
<linearGradient id="paint0_linear_7_539" x1="38.1089" y1="2.00054" x2="38.1089" y2="76.5965" gradientUnits="userSpaceOnUse">
<stop stop-color="#C8FF49"/>
<stop offset="1" stop-color="#A4FF49"/>
</linearGradient>
</defs>
</svg>
