<svg width="74" height="76" viewBox="0 0 74 76" fill="none" xmlns="http://www.w3.org/2000/svg">
<path d="M21.9203 8.00986C25.2027 8.75286 33.7801 2 36.6487 2C39.5172 2 48.1605 8.75286 51.4429 8.00986C54.4807 7.32329 61.6192 3.81518 68.7765 3.64589C69.764 3.62708 70.5352 4.43592 70.5447 5.42346L71.3629 62.5689C71.3817 63.942 70.4224 65.1553 69.1715 65.7008C64.4501 67.7887 56.7192 73.0367 53.5967 73.0367C49.9099 73.0367 39.7712 64.9766 36.6487 64.9766C33.5262 64.9766 23.4533 73.0367 19.7571 73.0367C16.6346 73.0367 8.91302 67.7887 4.19166 65.7008C2.94078 65.1553 1.98146 63.942 2.00027 62.5689L2.81852 5.42346C2.82792 4.43592 3.59914 3.62708 4.58668 3.64589C11.744 3.81518 18.8824 7.32329 21.9203 8.00986Z" fill="url(#paint0_linear_7_518)"/>
<path d="M57.9922 21.3117C58.0517 27.6287 54.6058 28.2976 48.8507 29.6834C47.4833 30.0126 45.1102 31.5512 43.5687 33.4172C42.0272 35.2832 43.332 37.8601 42.2127 41.1806C41.0142 45.7069 36.735 48.4065 31.7624 48.8114" stroke="#796358" stroke-opacity="0.5" stroke-width="2" stroke-linecap="round"/>
<path d="M36.6487 2C39.5172 2 48.16 8.75207 51.4427 8.00977C54.4805 7.3232 61.6194 3.81483 68.7767 3.64551C69.7642 3.6267 70.5358 4.43629 70.5452 5.42383L71.3636 62.5693C71.3822 63.9422 70.4228 65.1557 69.1722 65.7012C64.4508 67.7891 56.7195 73.0371 53.597 73.0371C49.9102 73.0371 39.7712 64.9766 36.6487 64.9766C33.526 64.9769 23.4533 73.0371 19.7571 73.0371C16.6345 73.0368 8.91295 67.7891 4.19171 65.7012C2.941 65.1557 1.98172 63.9423 2.00031 62.5693L2.81866 5.42383C2.82807 4.43629 3.59968 3.6267 4.58722 3.64551C11.7442 3.81487 18.8822 7.32302 21.9202 8.00977C25.2025 8.75275 33.78 2.00032 36.6487 2ZM36.6302 9.69336C35.5581 9.69336 34.2036 10.182 32.6048 11.0566C31.147 11.8561 29.3693 12.8066 27.6575 13.4932C26.8017 13.8411 25.7762 14.1987 24.6946 14.415C23.6696 14.6219 22.1463 14.8096 20.4632 14.4336C19.2499 14.1608 17.848 13.6626 16.7288 13.2676C15.4685 12.8161 14.1894 12.3548 12.7786 11.9033C12.0075 11.6494 11.2265 11.4149 10.4554 11.208C9.87235 11.0577 9.30854 11.4899 9.29913 12.0918L8.63116 59.3428C8.62176 60.0575 9.02595 60.7255 9.66534 61.0547C11.7531 62.155 13.9918 63.4338 15.7034 64.3555C17.1142 65.1173 18.3 65.7196 19.2405 66.124C19.5226 66.2367 19.8423 66.2371 20.1243 66.1055C20.2654 66.0396 20.4156 65.9639 20.5755 65.8887C21.8358 65.2585 23.3221 64.3842 25.0433 63.3496C26.6515 62.3903 28.5136 61.2705 30.1595 60.4053C30.987 59.9727 31.918 59.5214 32.8489 59.1641H32.8685C33.668 58.8537 35.2858 58.374 36.64 58.374C37.9942 58.3741 39.6398 58.8537 40.4485 59.1641H40.4583C41.3893 59.5214 42.3202 59.9727 43.1478 60.4053C44.7936 61.2705 46.6557 62.3903 48.264 63.3496C49.9851 64.3842 51.4809 65.2585 52.7318 65.8887C52.901 65.9639 53.0513 66.0396 53.1829 66.1055C53.4649 66.2371 53.7847 66.2367 54.0667 66.124C55.0072 65.7196 56.1931 65.1173 57.6038 64.3555C59.3248 63.4338 61.5536 62.155 63.6507 61.0547C64.2902 60.7255 64.6953 60.0576 64.6859 59.3428L64.0081 12.0918C64.0081 11.4899 63.4349 11.0577 62.8519 11.208C62.0807 11.4149 61.3092 11.6494 60.5286 11.9033C59.1179 12.3548 57.8387 12.8161 56.5784 13.2676C55.4592 13.6626 54.0573 14.1608 52.8441 14.4336C51.1704 14.8096 49.6377 14.6219 48.6126 14.415C47.5311 14.1987 46.515 13.8411 45.6497 13.4932C43.938 12.8066 42.17 11.8561 40.7122 11.0566C39.104 10.182 37.7024 9.69338 36.6302 9.69336Z" fill="#E1B177"/>
<path d="M24.3664 44.0404C26.2633 43.1621 27.8178 45.6914 26.1843 47C25.552 47.5533 24.9987 47.7992 24.3312 48.3612C23.5672 49.0726 24.665 49.4941 25.2007 50.144C26.2106 51.2418 27.686 52.4537 27.73 53.9994C27.7212 55.106 26.4917 55.9403 25.4554 55.5451C24.3839 55.0972 24.138 54.0433 23.2861 53.2529C22.0478 52.12 21.5385 50.7324 20.3441 52.8226C19.6679 53.692 19.3429 55.0533 18.0519 55.2026C17.0683 55.3519 16.1198 54.4649 16.1374 53.4901C16.2955 52.041 17.2001 51.2242 18.1134 49.8366C18.3681 49.4854 18.6316 49.0111 18.2012 48.6862C17.5953 48.2207 16.9981 48.0012 16.2955 47.685C14.0911 46.2271 16.1725 43.531 18.3681 44.699C19.22 44.9888 20.1158 45.8232 20.9676 46.1745C21.3892 46.2623 21.679 45.911 21.96 45.6826C22.7943 45.0503 23.3213 44.6727 24.2346 44.0931L24.3664 44.0316V44.0404ZM19.2112 52.2869C19.2112 52.2869 19.1936 52.2605 19.1761 52.2518C19.1761 52.2518 19.1585 52.243 19.1585 52.2342C19.1761 52.2518 19.1936 52.2693 19.2112 52.2869Z" fill="#BB2628"/>
<path opacity="0.3" d="M20.3883 74.0212L22.0404 7.33425L17.8906 5.80608L8.2663 3.50463L4.08184 2.87695L2.05935 4.481L0.943481 55.113L2.05935 65.2666L9.55854 69.6513L20.3883 74.0212Z" fill="#B43C00" fill-opacity="0.5"/>
<path opacity="0.3" d="M53.1985 73.9484L51.9679 6.88101L42.2257 3.59942L37.7135 1.6382L35.4451 1.6382V66.0521L42.2257 68.6159L53.1985 73.9484Z" fill="#B43C00" fill-opacity="0.5"/>
<path d="M36.6484 1C37.1771 1 37.7538 1.14955 38.3076 1.3457C38.8767 1.54726 39.5011 1.82703 40.1494 2.14551C41.4395 2.77931 42.9267 3.61981 44.3691 4.40527C45.8342 5.20305 47.2659 5.9516 48.5225 6.45605C49.1494 6.70773 49.7066 6.88816 50.1826 6.98535C50.6673 7.08431 51.0044 7.08329 51.2217 7.03418H51.2227C51.9133 6.87807 52.8708 6.55209 54.0928 6.11914C55.2923 5.69414 56.7117 5.17931 58.2588 4.68164C61.3501 3.68725 65.0315 2.73451 68.7529 2.64648H68.7578C70.3433 2.61648 71.5282 3.91274 71.5449 5.40918L72.3633 62.5547L72.3613 62.7285C72.308 64.5077 71.0621 65.964 69.5752 66.6143L69.5762 66.6152C67.2632 67.6381 64.2314 69.4267 61.2598 71.0312C59.7971 71.821 58.3567 72.5608 57.0742 73.1045C55.8266 73.6333 54.5957 74.0371 53.5967 74.0371C52.9739 74.0371 52.2901 73.8713 51.6104 73.6357C50.9186 73.3961 50.1661 73.0609 49.3867 72.6729C47.83 71.8978 46.0874 70.8708 44.3994 69.8662C42.6949 68.8518 41.0491 67.8616 39.6328 67.1221C38.926 66.753 38.2988 66.4592 37.7686 66.2588C37.2193 66.0512 36.8554 65.9766 36.6484 65.9766C36.4417 65.9766 36.0791 66.0505 35.5322 66.2578C35.004 66.458 34.3795 66.7531 33.6758 67.1221C32.2658 67.8614 30.6284 68.8509 28.9316 69.8652C27.2514 70.8698 25.516 71.8966 23.9639 72.6719C23.1868 73.06 22.4353 73.395 21.7441 73.6348C21.0647 73.8705 20.3807 74.0371 19.7568 74.0371C18.7578 74.037 17.5279 73.6333 16.2812 73.1045C14.9995 72.5608 13.5603 71.8211 12.0986 71.0312C9.1293 69.4267 6.09994 67.638 3.78711 66.6152V66.6143C2.25254 65.9429 0.974558 64.4119 1 62.5547L1.81836 5.40918C1.83509 3.9127 3.01991 2.61642 4.60547 2.64648H4.61035C8.33177 2.73451 12.0132 3.68724 15.1045 4.68164C16.6517 5.17933 18.0709 5.69413 19.2705 6.11914C20.4926 6.55211 21.45 6.87808 22.1406 7.03418C22.3579 7.08337 22.6944 7.08412 23.1768 6.98535C23.6506 6.88829 24.2055 6.70856 24.8291 6.45703C26.0791 5.95283 27.5022 5.20403 28.959 4.40625C30.3931 3.6209 31.8721 2.78046 33.1562 2.14648C33.8018 1.8278 34.4245 1.54845 34.9922 1.34668C35.5446 1.15036 36.1195 1.00004 36.6484 1Z" stroke="#796358" stroke-width="5" stroke-linejoin="round"/>
<defs>
<linearGradient id="paint0_linear_7_518" x1="36.6816" y1="2" x2="36.6816" y2="64.6089" gradientUnits="userSpaceOnUse">
<stop stop-color="#FFF1DB"/>
<stop offset="1" stop-color="#FFF0D7"/>
</linearGradient>
</defs>
</svg>
