<svg viewBox="0 0 77 79" fill="none" xmlns="http://www.w3.org/2000/svg">
<g filter="url(#flame-warp)">
<path d="M37.5166 1.03082C39.379 0.820095 41.1238 1.70759 42.8887 3.36871C44.4338 4.82296 46.1101 6.9779 48.0361 9.8482L48.8779 11.1216L48.8857 11.1353C48.9992 11.3158 49.0686 11.4175 49.1367 11.4918C49.1833 11.5425 49.2134 11.5606 49.2344 11.5699C49.254 11.5763 49.3065 11.5898 49.4727 11.5308C49.5669 11.4974 49.673 11.4498 49.8145 11.3824C49.9415 11.3218 50.118 11.2349 50.2891 11.1607L50.9395 10.8892C51.6251 10.6171 52.4068 10.3537 53.2031 10.1959C54.1816 10.0019 55.2997 9.94262 56.3105 10.3316L56.5117 10.4156L56.5859 10.4537C57.3296 10.8678 58.0285 11.6905 58.6436 12.566C59.2843 13.4781 59.9309 14.592 60.54 15.7398C61.7426 18.0058 62.8443 20.4924 63.5156 22.0103C63.5679 22.1019 63.6142 22.153 63.6553 22.1851C63.6815 22.1977 63.7422 22.2034 63.9258 22.1304C64.0732 22.0718 64.2276 21.9905 64.4492 21.8755C64.6472 21.7729 64.9051 21.6397 65.1797 21.5396C66.01 21.2134 67.2336 20.8711 68.3525 21.3843L68.5762 21.4996L68.6787 21.5669C69.2436 21.9902 69.7782 22.8045 70.2637 23.7271C70.7747 24.6983 71.3118 25.9502 71.835 27.4058C72.882 30.3192 73.8959 34.1142 74.5361 38.2505C75.8074 46.4639 75.6464 56.3005 71.0195 63.1939C71.0169 63.1979 71.0144 63.2027 71.0117 63.2066C65.9503 70.5174 57.1398 74.6766 48.7422 76.5044L48.7334 76.5064C34.0266 79.5695 15.4327 76.4264 5.60938 63.7906C5.60299 63.7824 5.59695 63.7736 5.59082 63.7652C2.80855 59.9428 1.51787 55.0856 1.13086 50.1324C0.743221 45.171 1.25532 40.0361 2.14844 35.5806L2.15527 35.5513C2.76636 32.9182 3.35962 30.288 4.14648 27.9273C4.9337 25.5657 5.94074 23.389 7.4248 21.6812L7.48633 21.6158C7.55071 21.5539 7.62345 21.5013 7.70215 21.4585C8.72776 20.902 9.79851 21.1233 10.5859 21.3931C10.9907 21.5318 11.3858 21.707 11.7217 21.855C12.0419 21.9962 12.3033 22.1093 12.5352 22.19C12.5403 22.1881 12.551 22.1853 12.5654 22.1753C12.6167 22.1399 12.6871 22.0599 12.7354 21.9439L12.7588 21.8931C13.5167 20.3207 14.6572 17.5548 15.8916 15.2427C16.5191 14.0675 17.2081 12.9333 17.9434 12.0386C18.6548 11.1731 19.5292 10.3825 20.5635 10.1431L20.6064 10.1343C21.6883 9.93308 22.8527 10.1237 23.8848 10.4185C24.6704 10.643 25.4345 10.9442 26.1064 11.2408L26.7451 11.5328L26.7803 11.5494C26.7872 11.553 26.807 11.5617 26.8418 11.566C26.8768 11.5702 26.9178 11.5695 26.959 11.5621C26.9964 11.5553 27.0228 11.543 27.0381 11.5357C27.0405 11.533 27.0435 11.5306 27.0459 11.5279L27.1133 11.4527C29.1394 8.4298 30.877 5.96461 32.4814 4.20855C34.085 2.45349 35.7054 1.2358 37.5166 1.03082Z" fill="url(#paint0_linear_5_45)" stroke="#73AA00" stroke-width="2" stroke-linejoin="round"/>
</g>
<path d="M12.1142 46.2685C12.1142 46.2685 12.1842 46.1606 12.1842 46.1018C12.5442 23.4689 29.6842 17.9971 38.1142 17.9971C46.5442 17.9971 63.6642 23.4689 64.0242 46.1116C64.0242 46.1704 64.0442 46.2293 64.0942 46.2783L66.2242 48.5141C66.6742 48.9946 66.9542 49.6124 66.9742 50.2596C67.0142 51.3579 66.8942 53.1623 65.9742 55.0059C65.0842 56.7906 63.7042 58.1929 62.7442 59.0264C62.0842 59.5952 61.1742 59.7521 60.3342 59.5266L55.7742 58.3302C55.3542 58.2223 54.9942 58.6244 55.1642 59.0166C56.1042 61.1446 57.8242 66.185 54.0642 67.9403C50.8742 69.4309 48.7042 67.0185 47.5942 65.2142C47.4542 64.9788 47.0942 65.0965 47.1242 65.3711C47.4242 67.6167 47.3242 71.2254 43.7542 71.8628C40.1242 72.5199 38.8142 69.0779 38.3442 66.8813C38.2842 66.6165 37.9042 66.6165 37.8542 66.8813C37.3842 69.0779 36.0742 72.51 32.4342 71.8628C28.8642 71.2254 28.7542 67.6167 29.0642 65.3711C29.1042 65.1063 28.7442 64.9788 28.5942 65.2142C27.4942 67.0185 25.3242 69.4309 22.1242 67.9403C18.3642 66.185 20.0842 61.1446 21.0242 59.0166C21.1942 58.6244 20.8342 58.2223 20.4142 58.3302L15.8542 59.5266C15.0042 59.7521 14.0942 59.5952 13.4442 59.0264C12.4842 58.1929 11.1042 56.7906 10.2142 55.0059C9.33423 53.1917 9.19423 51.4364 9.22423 50.3283C9.24423 49.6517 9.50423 48.9946 9.98423 48.5043L12.1142 46.2685Z" fill="url(#paint1_radial_5_45)"/>
<path d="M10.8149 46.3334C10.8149 46.3334 10.8884 46.2201 10.8884 46.1583C11.2664 22.3938 29.2634 16.6484 38.1149 16.6484C46.9664 16.6484 64.9424 22.3938 65.3204 46.1686C65.3204 46.2304 65.3414 46.2922 65.3939 46.3437L67.6304 48.6913C68.1029 49.1958 68.3969 49.8445 68.4179 50.5241C68.4599 51.6773 68.3339 53.5719 67.3679 55.5076C66.4334 57.3816 64.9844 58.854 63.9764 59.7292C63.2834 60.3264 62.3279 60.4912 61.4459 60.2543L56.6579 58.9982C56.2169 58.8849 55.8389 59.3071 56.0174 59.7189C57.0044 61.9533 58.8104 67.2457 54.8624 69.0888C51.5129 70.6539 49.2344 68.1209 48.0689 66.2264C47.9219 65.9792 47.5439 66.1028 47.5754 66.3911C47.8904 68.749 47.7854 72.5382 44.0369 73.2074C40.2254 73.8973 38.8499 70.2832 38.3564 67.9768C38.2934 67.6988 37.8944 67.6988 37.8419 67.9768C37.3484 70.2832 35.9729 73.887 32.1509 73.2074C28.4024 72.5382 28.2869 68.749 28.6124 66.3911C28.6544 66.1131 28.2764 65.9792 28.1189 66.2264C26.9639 68.1209 24.6854 70.6539 21.3254 69.0888C17.3774 67.2457 19.1834 61.9533 20.1704 59.7189C20.3489 59.3071 19.9709 58.8849 19.5299 58.9982L14.7419 60.2543C13.8494 60.4912 12.8939 60.3264 12.2114 59.7292C11.2034 58.854 9.75438 57.3816 8.81988 55.5076C7.89588 53.6028 7.74888 51.7597 7.78038 50.5962C7.80138 49.8857 8.07438 49.1958 8.57838 48.681L10.8149 46.3334Z" fill="url(#paint2_radial_5_45)"/>
<ellipse cx="38.1007" cy="34.0606" rx="23.5792" ry="16.0636" fill="#393F39"/>
<ellipse cx="47.1341" cy="28.8903" rx="5.40942" ry="7.29811" transform="rotate(-60 47.1341 28.8903)" fill="#505750"/>
<ellipse cx="55.0732" cy="38.2524" rx="2.23708" ry="3.01816" transform="rotate(-60 55.0732 38.2524)" fill="#505750"/>
<path d="M38.1141 16.9971C42.5068 16.9971 49.1236 18.4144 54.7108 22.7754C60.2926 27.1323 64.7589 34.3634 65.0155 45.7959L66.9481 47.8242L66.954 47.8301V47.831C67.5498 48.4673 67.9439 49.3087 67.9735 50.2236L67.9803 50.709C67.9716 51.8344 67.7897 53.4188 67.0497 55.0703L66.869 55.4521C65.8961 57.4032 64.4077 58.9065 63.4003 59.7812L63.3973 59.7842C62.4558 60.5955 61.1957 60.7906 60.0809 60.4931V60.4941L56.4608 59.5439C56.8778 60.6447 57.3108 62.1083 57.3759 63.5742C57.4191 64.5493 57.303 65.5848 56.8602 66.5293C56.4075 67.4951 55.6384 68.3092 54.4872 68.8467C52.5695 69.7426 50.88 69.47 49.538 68.6719C49.0403 68.3759 48.5968 68.0123 48.2059 67.6221C48.1612 68.2606 48.0513 68.9176 47.8358 69.5449C47.3007 71.1025 46.1194 72.4567 43.9296 72.8476L43.9286 72.8467C42.8538 73.0406 41.8958 72.9394 41.0614 72.5947C40.2324 72.2522 39.5846 71.6944 39.0829 71.0654C38.6752 70.5543 38.3535 69.982 38.0985 69.4053C37.8433 69.9811 37.5223 70.5531 37.1141 71.0635C36.6115 71.6918 35.9623 72.2482 35.1327 72.5908C34.2971 72.9358 33.3372 73.0392 32.2596 72.8476H32.2587C30.0696 72.4568 28.8852 71.1036 28.3485 69.5459C28.1333 68.9213 28.0224 68.267 27.9774 67.6308C27.5897 68.0173 27.1514 68.3784 26.6581 68.6719C25.3153 69.4704 23.6237 69.7418 21.702 68.8467H21.701C20.5499 68.3092 19.7807 67.4951 19.328 66.5293C18.8853 65.5848 18.7691 64.5492 18.8124 63.5742C18.8775 62.1085 19.3095 60.6447 19.7264 59.5439L16.1083 60.4941L16.1073 60.4931C14.9884 60.7891 13.7233 60.5992 12.786 59.7793V59.7783C11.7786 58.9032 10.2913 57.4014 9.31921 55.4521L9.31433 55.4424C8.34318 53.4403 8.19169 51.5123 8.22449 50.3008V50.2988C8.25139 49.3886 8.60171 48.4868 9.26941 47.8047L11.1923 45.7861C11.449 34.3579 15.921 27.1288 21.5077 22.7734C27.0997 18.414 33.7216 16.9971 38.1141 16.9971Z" stroke="black" stroke-width="2"/>
<g filter="url(#filter0_d_5_45)">
<path d="M21.4993 52.8467C16.2593 48.3167 23.209 38.2772 29.219 41.6972L29.3694 41.7871C35.4788 46.3072 27.5692 57.4165 21.4993 52.8467ZM46.9993 41.6972C53.0093 38.2773 59.9589 48.3166 54.719 52.8467C48.6491 57.4166 40.7394 46.3072 46.8489 41.7871L46.9993 41.6972Z" fill="url(#paint3_linear_5_45)"/>
</g>
<path d="M37.5818 18.0049C37.4029 18.146 37.181 18.3107 36.9167 18.499H36.906L36.7761 18.5986C28.7363 24.3286 22.3367 33.2785 21.5066 43.3183C21.3366 46.5083 22.3568 49.729 24.9568 51.749C27.7069 54.1186 32.7261 53.3288 30.6062 58.3086C29.8021 60.5326 29.0923 62.838 28.8552 65.0967C28.7617 65.0817 28.659 65.1129 28.5945 65.2139C27.4945 67.0182 25.3238 69.431 22.1238 67.9404C18.3642 66.1849 20.0842 61.1445 21.0242 59.0166C21.1941 58.6243 20.8338 58.2222 20.4138 58.3301L15.8542 59.5264C15.0042 59.7519 14.0941 59.5951 13.4441 59.0264C12.4841 58.1928 11.1045 56.7904 10.2146 55.0058C9.33458 53.1917 9.19435 51.4362 9.22435 50.3281C9.24439 49.6515 9.50416 48.9942 9.98411 48.5039L12.114 46.2685C12.114 46.2685 12.1843 46.1604 12.1843 46.1015C12.537 23.9357 28.9844 18.2308 37.5818 18.0049Z" fill="black" fill-opacity="0.25"/>
<g filter="url(#filter1_d_5_45)">
<path d="M36.5401 52.657C37.5801 51.507 39.4601 51.927 40.2201 53.377C40.9501 54.487 42.1201 55.717 41.4601 57.117C40.6901 58.537 38.8101 59.757 37.1401 59.147C35.9001 58.657 34.4501 57.497 34.5601 56.047C34.6401 55.047 35.8301 53.617 36.4301 52.787L36.5401 52.667V52.657Z" fill="url(#paint4_linear_5_45)"/>
</g>
<g filter="url(#filter2_i_5_45)">
<path d="M27.8792 12.107C36.1092 -0.182952 38.9292 -2.34295 48.0392 11.667C48.2592 12.017 48.4892 12.367 48.9092 12.517C49.5292 12.727 50.0892 12.337 50.6892 12.077C52.2692 11.387 54.5292 10.617 56.0992 11.327C58.2192 12.507 61.2892 19.447 62.6292 22.477C62.7392 22.677 62.8792 22.857 63.0692 22.997C63.8892 23.557 64.6992 22.777 65.5292 22.477C66.3892 22.137 67.3292 21.9371 68.0792 22.3671C71.0292 24.5771 79.0092 49.497 70.1892 62.637C65.3292 69.657 56.7992 73.727 48.5292 75.527C34.0292 78.547 15.8992 75.397 6.3992 63.177C1.1292 55.937 1.3692 44.557 3.1292 35.777C4.3592 30.477 5.4592 25.467 8.1792 22.337C9.4692 21.637 11.0692 22.767 12.2992 23.167C12.9292 23.307 13.4392 22.857 13.6592 22.327C15.2692 18.987 17.9792 11.767 20.7892 11.117C22.5092 10.797 24.7492 11.697 26.3192 12.437C26.8192 12.697 27.5092 12.547 27.7892 12.197L27.8792 12.097V12.107Z" fill="url(#paint5_radial_5_45)" fill-opacity="0.12"/>
</g>
<defs>
<filter id="flame-warp" x="-5%" y="-10%" width="110%" height="120%">
<feTurbulence type="fractalNoise" baseFrequency="0.025" numOctaves="2" result="noise">
<animate attributeName="seed" values="0;1;2;3;4;5;6;7;8;9" dur="1.2s" calcMode="discrete" repeatCount="indefinite"/>
</feTurbulence>
<feDisplacementMap in="SourceGraphic" in2="noise" scale="3" xChannelSelector="R" yChannelSelector="G"/>
</filter>
<filter id="filter0_d_5_45" x="13.6496" y="35.0002" width="48.9191" height="24.928" filterUnits="userSpaceOnUse" color-interpolation-filters="sRGB">
<feFlood flood-opacity="0" result="BackgroundImageFix"/>
<feColorMatrix in="SourceAlpha" type="matrix" values="0 0 0 0 0 0 0 0 0 0 0 0 0 0 0 0 0 0 127 0" result="hardAlpha"/>
<feOffset/>
<feGaussianBlur stdDeviation="3"/>
<feComposite in2="hardAlpha" operator="out"/>
<feColorMatrix type="matrix" values="0 0 0 0 0.72549 0 0 0 0 1 0 0 0 0 0.286275 0 0 0 0.3 0"/>
<feBlend mode="normal" in2="BackgroundImageFix" result="effect1_dropShadow_5_45"/>
<feBlend mode="normal" in="SourceGraphic" in2="effect1_dropShadow_5_45" result="shape"/>
</filter>
<filter id="filter1_d_5_45" x="28.5542" y="45.9959" width="19.1006" height="19.3122" filterUnits="userSpaceOnUse" color-interpolation-filters="sRGB">
<feFlood flood-opacity="0" result="BackgroundImageFix"/>
<feColorMatrix in="SourceAlpha" type="matrix" values="0 0 0 0 0 0 0 0 0 0 0 0 0 0 0 0 0 0 127 0" result="hardAlpha"/>
<feOffset/>
<feGaussianBlur stdDeviation="3"/>
<feComposite in2="hardAlpha" operator="out"/>
<feColorMatrix type="matrix" values="0 0 0 0 0.72549 0 0 0 0 1 0 0 0 0 0.286275 0 0 0 0.3 0"/>
<feBlend mode="normal" in2="BackgroundImageFix" result="effect1_dropShadow_5_45"/>
<feBlend mode="normal" in="SourceGraphic" in2="effect1_dropShadow_5_45" result="shape"/>
</filter>
<filter id="filter2_i_5_45" x="2" y="-2.99946" width="72.2179" height="79.5959" filterUnits="userSpaceOnUse" color-interpolation-filters="sRGB">
<feFlood flood-opacity="0" result="BackgroundImageFix"/>
<feBlend mode="normal" in="SourceGraphic" in2="BackgroundImageFix" result="shape"/>
<feColorMatrix in="SourceAlpha" type="matrix" values="0 0 0 0 0 0 0 0 0 0 0 0 0 0 0 0 0 0 127 0" result="hardAlpha"/>
<feOffset dy="-5"/>
<feGaussianBlur stdDeviation="4.5"/>
<feComposite in2="hardAlpha" operator="arithmetic" k2="-1" k3="1"/>
<feColorMatrix type="matrix" values="0 0 0 0 0.9 0 0 0 0 1 0 0 0 0 0 0 0 0 0.45 0"/>
<feBlend mode="normal" in2="shape" result="effect1_innerShadow_5_45"/>
</filter>
<linearGradient id="paint0_linear_5_45" x1="38.1089" y1="2.00054" x2="38.1089" y2="76.5965" gradientUnits="userSpaceOnUse">
<stop stop-color="#C8FF49"/>
<stop offset="1" stop-color="#A4FF49"/>
</linearGradient>
<radialGradient id="paint1_radial_5_45" cx="0" cy="0" r="1" gradientUnits="userSpaceOnUse" gradientTransform="translate(38.1007 29.5972) rotate(90) scale(42.3476 45.3403)">
<stop stop-color="#2F352F"/>
<stop offset="1" stop-color="#161616"/>
</radialGradient>
<radialGradient id="paint2_radial_5_45" cx="0" cy="0" r="1" gradientUnits="userSpaceOnUse" gradientTransform="translate(38.1007 28.8285) rotate(90) scale(44.465 47.6073)">
<stop stop-color="#2F352F"/>
<stop offset="1" stop-color="#161616"/>
</radialGradient>
<linearGradient id="paint3_linear_5_45" x1="38.109" y1="41.0002" x2="38.109" y2="53.9282" gradientUnits="userSpaceOnUse">
<stop stop-color="#C8FF49"/>
<stop offset="1" stop-color="#A4FF49"/>
</linearGradient>
<linearGradient id="paint4_linear_5_45" x1="38.1045" y1="51.9959" x2="38.1045" y2="59.3081" gradientUnits="userSpaceOnUse">
<stop stop-color="#C8FF49"/>
<stop offset="1" stop-color="#A4FF49"/>
</linearGradient>
<radialGradient id="paint5_radial_5_45" cx="0" cy="0" r="1" gradientUnits="userSpaceOnUse" gradientTransform="translate(38.1089 13.3176) rotate(90) scale(63.2789 64.2892)">
<stop stop-color="#A4FF49" stop-opacity="0"/>
<stop offset="1" stop-color="#C8FF49"/>
</radialGradient>
</defs>
</svg>
